<svg xmlns="http://www.w3.org/2000/svg" xmlns:xlink="http://www.w3.org/1999/xlink" viewBox="0 0 507.68 205.59"><defs><style>.cls-1{fill:url(#linear-gradient);}.cls-2{fill:url(#linear-gradient-2);}.cls-3{fill:url(#linear-gradient-3);}.cls-4{fill:url(#linear-gradient-4);}.cls-5{fill:url(#linear-gradient-5);}</style><linearGradient id="linear-gradient" x1="114.93" y1="137.7" x2="147.55" y2="137.7" gradientUnits="userSpaceOnUse"><stop offset="0" stop-color="#37552a"/><stop offset="1" stop-color="#273823"/></linearGradient><linearGradient id="linear-gradient-2" x1="170.05" y1="137.7" x2="202.68" y2="137.7" xlink:href="#linear-gradient"/><linearGradient id="linear-gradient-3" x1="170.05" y1="189.21" x2="202.68" y2="189.21" xlink:href="#linear-gradient"/><linearGradient id="linear-gradient-4" x1="114.93" y1="189.21" x2="147.55" y2="189.21" xlink:href="#linear-gradient"/><linearGradient id="linear-gradient-5" x1="0" y1="88.25" x2="507.68" y2="88.25" xlink:href="#linear-gradient"/></defs><g id="Layer_2" data-name="Layer 2"><g id="Albastones_logo"><rect class="cls-1" x="114.93" y="121.31" width="32.63" height="32.78"/><rect class="cls-2" x="170.05" y="121.31" width="32.63" height="32.78"/><rect class="cls-3" x="170.05" y="172.82" width="32.63" height="32.78"/><rect class="cls-4" x="114.93" y="172.82" width="32.63" height="32.78"/><path class="cls-5" d="M507.66,151.73a.5.5,0,0,0-.1-.48L412.43,47.49a.5.5,0,0,0-.7,0v-1h-59.8V0h-40.5V46.5h-104L172.23,9a14.36,14.36,0,0,0-2.36-3.17h0a14,14,0,0,0-19.88,0L4.12,152.39a14.17,14.17,0,0,0,0,20,14,14,0,0,0,19.87,0C40.37,155.91,134.16,61.89,149.09,46.68c.8-.81,2.26-2.3,4.21-4.25h0l4.55-2.87a9.07,9.07,0,0,1,2.63-.56,7.4,7.4,0,0,1,3.19.38c2,.74,2.16,2,5.53,4.3l.34.23c2,1.28,37,38.38,123.37,131.25l.52-.49v.14H500.6v-.53Q504.14,163,507.66,151.73Z"/></g></g></svg>